g top
v -0.500000 0.500000 0.500000
v -0.500000 0.000000 -0.500000
v 0.500000 0.000000 -0.500000
v 0.500000 0.500000 0.500000
vt 1.0000 0.0000
vt 1.0000 1.0000
vt 0.0000 1.0000
vt 0.0000 0.0000
vn 0.0000 0.8944 -0.4472
s off
f 2/1/1 1/2/1 4/3/1 3/4/1
g bottom
v -0.500000 -0.500000 -0.500000
v -0.500000 -0.500000 0.500000
v 0.500000 -0.500000 -0.500000
v 0.500000 -0.500000 0.500000
vt 1.0000 0.0000
vt 1.0000 1.0000
vt 0.0000 1.0000
vt 0.0000 0.0000
vn 0.0000 -1.0000 -0.0000
s off
f 6/5/2 5/6/2 7/7/2 8/8/2
g right
v -0.500000 0.500000 0.500000
v -0.500000 0.000000 -0.500000
v -0.500000 -0.500000 -0.500000
v -0.500000 -0.500000 0.500000
vt 1.0000 1.0000
vt 0.0000 0.5000
vt 0.0000 0.0000
vt 1.0000 0.0000
vn -1.0000 0.0000 0.0000
s off
f 9/9/3 10/10/3 11/11/3 12/12/3
g left
v 0.500000 0.000000 -0.500000
v 0.500000 -0.500000 -0.500000
v 0.500000 0.500000 0.500000
v 0.500000 -0.500000 0.500000
vt 1.0000 0.5000
vt 0.0000 1.0000
vt 0.0000 0.0000
vt 1.0000 0.0000
vn 1.0000 0.0000 0.0000
s off
f 13/13/4 15/14/4 16/15/4 14/16/4
g back
v -0.500000 0.500000 0.500000
v -0.500000 -0.500000 0.500000
v 0.500000 0.500000 0.500000
v 0.500000 -0.500000 0.500000
vt 1.0000 1.0000
vt 0.0000 1.0000
vt 0.0000 0.0000
vt 1.0000 0.0000
vn 0.0000 -0.0000 1.0000
s off
f 19/17/5 17/18/5 18/19/5 20/20/5
g front
v -0.500000 0.000000 -0.500000
v -0.500000 -0.500000 -0.500000
v 0.500000 0.000000 -0.500000
v 0.500000 -0.500000 -0.500000
vt 1.0000 0.5000
vt 0.0000 0.5000
vt 0.0000 0.0000
vt 1.0000 0.0000
vn 0.0000 0.0000 -1.0000
s off
f 21/21/6 23/22/6 24/23/6 22/24/6
