# Blender v2.72 (sub 0) OBJ File: ''
# www.blender.org
mtllib moreblocks_slope_cut.mtl
o moreblocks_slope_cut
v -0.500000 -0.500000 0.500000
v 0.500000 -0.500000 0.500000
v 0.500000 0.500000 0.500000
v -0.500000 -0.000000 0.500000
v 0.500000 -0.500000 -0.500000
v 0.500000 0.000000 -0.500000
v -0.500000 -0.500000 -0.500000
vt 0.000000 0.000000
vt 1.000000 0.000000
vt 1.000000 1.000000
vt 0.000000 0.500000
vt 1.000000 0.500000
vt 0.000000 1.000000
vt 0.500000 0.000000
vt 0.500000 2.000000
vn 0.000000 -0.000000 1.000000
vn 1.000000 0.000000 0.000000
vn 0.000000 -1.000000 -0.000000
vn -0.408200 0.816500 -0.408200
vn 0.000000 0.000000 -1.000000
vn -1.000000 0.000000 0.000000
usemtl None
s off
f 1/1/1 2/2/1 3/3/1 4/4/1
f 2/1/2 5/2/2 6/5/2 3/6/2
f 2/3/3 1/6/3 7/1/3 5/2/3
f 7/7/4 4/3/4 3/8/4 6/6/4
f 5/1/5 7/2/5 6/4/5
f 7/1/6 1/2/6 4/5/6
