g top
v 0.500000 -0.000000 0.500000
v -0.500000 -0.000000 0.500000
v -0.500000 -0.500000 -0.500000
v 0.500000 -0.500000 -0.500000
vt 1.0000 1.0000
vt 0.0000 1.0000
vt 0.0000 0.0000
vt 1.0000 0.0000
vn 0.0000 0.8944 -0.4472
s off
f 2/1/1 1/2/1 4/3/1 3/4/1
g bottom
v -0.500000 -0.500000 0.500000
v 0.500000 -0.500000 0.500000
v -0.500000 -0.500000 -0.500000
v 0.500000 -0.500000 -0.500000
vt 0.0000 0.0000
vt 1.0000 0.0000
vt 1.0000 1.0000
vt 0.0000 1.0000
vn 0.0000 -1.0000 -0.0000
s off
f 6/5/2 5/6/2 7/7/2 8/8/2
g right
v -0.500000 -0.000000 0.500000
v -0.500000 -0.500000 0.500000
v -0.500000 -0.500000 -0.500000
vt 1.0000 0.5000
vt 0.0000 0.0000
vt 1.0000 0.0000
vn -1.0000 0.0000 0.0000
s off
f 9/9/3 11/10/3 10/11/3
g left
v 0.500000 -0.000000 0.500000
v 0.500000 -0.500000 0.500000
v 0.500000 -0.500000 -0.500000
vt 0.0000 0.5000
vt 0.0000 0.0000
vt 1.0000 0.0000
vn 1.0000 0.0000 0.0000
s off
f 12/12/4 13/13/4 14/14/4
g back
v 0.500000 -0.000000 0.500000
v -0.500000 -0.000000 0.500000
v -0.500000 -0.500000 0.500000
v 0.500000 -0.500000 0.500000
vt 1.0000 0.5000
vt 0.0000 0.5000
vt 0.0000 0.0000
vt 1.0000 0.0000
vn 0.0000 -0.0000 1.0000
s off
f 15/15/5 16/16/5 17/17/5 18/18/5
