g top
v -0.500000 -0.500000 0.500000
v -0.500000 -0.500000 -0.500000
v 0.500000 -0.500000 -0.500000
v 0.500000 -0.000000 0.500000
vt 1.0000 0.0000
vt 0.0000 1.0000
vt 0.0000 0.0000
vt 1.0000 0.0000
vt 1.0000 1.0000
vt 0.0000 0.0000
vn 0.0000 0.8944 -0.4472
vn -0.4472 0.8944 0.0000
s off
f 2/1/1 4/2/1 3/3/1
f 1/4/2 4/5/2 2/6/2
g bottom
v -0.500000 -0.500000 0.500000
v -0.500000 -0.500000 -0.500000
v 0.500000 -0.500000 -0.500000
v 0.500000 -0.500000 0.500000
vt 1.0000 1.0000
vt 0.0000 1.0000
vt 0.0000 0.0000
vt 1.0000 0.0000
vn 0.0000 -1.0000 -0.0000
s off
f 5/7/3 6/8/3 7/9/3 8/10/3
g right
v -0.500000 -0.500000 0.500000
v 0.500000 -0.500000 0.500000
v 0.500000 -0.000000 0.500000
vt 1.0000 0.5000
vt 0.0000 0.0000
vt 1.0000 0.0000
vn 0.0000 -0.0000 1.0000
s off
f 11/11/4 9/12/4 10/13/4
g left
v 0.500000 -0.500000 -0.500000
v 0.500000 -0.500000 0.500000
v 0.500000 -0.000000 0.500000
vt 1.0000 0.0000
vt 0.0000 0.5000
vt 0.0000 0.0000
vn 1.0000 0.0000 0.0000
s off
f 12/14/5 14/15/5 13/16/5
