# Blender v2.72 (sub 0) OBJ File: ''
# www.blender.org
mtllib moreblocks_slope_outer.mtl
o Cube_Cube.004
v 0.500000 -0.500000 0.500000
v -0.500000 -0.500000 0.500000
v -0.500000 -0.500000 -0.500000
v 0.500000 -0.500000 -0.500000
v 0.500000 0.500000 0.500000
vt 1.000000 1.000000
vt 0.000000 1.000000
vt 0.000000 0.000000
vt 1.000000 0.000000
vn 0.000000 -1.000000 -0.000000
vn 1.000000 0.000000 0.000000
vn 0.000000 -0.000000 1.000000
vn -0.707100 0.707100 0.000000
vn 0.000000 0.707100 -0.707100
usemtl None
s off
f 1/1/1 2/2/1 3/3/1 4/4/1
f 5/2/2 1/3/2 4/4/2
f 2/3/3 1/4/3 5/1/3
f 5/1/4 3/3/4 2/4/4
f 5/2/5 4/3/5 3/4/5
