# Blender v2.72 (sub 0) OBJ File: ''
# www.blender.org
mtllib moreblocks_slope_outer_cut.mtl
o Cube.002
v 0.500000 0.500000 0.500000
v -0.500000 -0.500000 0.500000
v 0.500000 -0.500000 0.500000
v 0.500000 -0.500000 -0.500000
vt 1.000000 1.000000
vt 0.000000 0.000000
vt 1.000000 0.000000
vt 0.000000 1.000000
vt 0.500000 1.000000
vn 0.000000 -0.000000 1.000000
vn 1.000000 0.000000 0.000000
vn 0.000000 -1.000000 0.000000
vn -0.577400 0.577400 -0.577400
usemtl None.004
s off
f 1/1/1 2/2/1 3/3/1
f 4/3/2 1/4/2 3/2/2
f 3/2/3 2/3/3 4/4/3
f 2/3/4 1/5/4 4/2/4
