# Blender v2.72 (sub 0) OBJ File: ''
# www.blender.org
mtllib moreblocks_slope_inner.mtl
o Cube_Cube.000
v 0.500000 0.500000 -0.500000
v 0.500000 0.500000 0.500000
v 0.500000 -0.500000 0.500000
v 0.500000 -0.500000 -0.500000
v -0.500000 0.500000 0.500000
v -0.500000 -0.500000 -0.500000
v -0.500000 -0.500000 0.500000
v -0.500000 -0.500000 -0.500000
v 0.500000 -0.500000 0.500000
vt 1.000000 1.000000
vt 0.000000 1.000000
vt 0.000000 0.000000
vt 1.000000 0.000000
vn 1.000000 0.000000 0.000000
vn -1.000000 0.000000 0.000000
vn 0.000000 0.707100 -0.707100
vn 0.000000 0.000000 -1.000000
vn 0.000000 -1.000000 -0.000000
vn 0.000000 -0.000000 1.000000
vn -0.707100 0.707100 0.000000
usemtl None
s off
f 1/1/1 2/2/1 3/3/1 4/4/1
f 5/1/2 6/3/2 7/4/2
f 5/1/3 2/2/3 6/4/3
f 1/2/4 4/3/4 8/4/4
f 8/1/5 4/2/5 3/3/5 7/4/5
f 7/3/6 3/4/6 2/1/6 5/2/6
f 2/1/7 1/2/7 8/3/7
l 7 9
l 2 9
