# Blender v2.72 (sub 0) OBJ File: ''
# www.blender.org
mtllib moreblocks_slope_outer_cut_half.mtl
o Cube.003
v 0.500000 -0.000000 0.500000
v -0.500000 -0.500000 0.500000
v 0.500000 -0.500000 0.500000
v 0.500000 -0.500000 -0.500000
vt 1.000000 0.500000
vt 0.000000 0.000000
vt 1.000000 0.000000
vt 0.000000 0.500000
vt 0.000000 1.000000
vt 0.500000 1.000000
vn 0.000000 -0.000000 1.000000
vn 1.000000 0.000000 0.000000
vn 0.000000 -1.000000 0.000000
vn -0.408200 0.816500 -0.408200
usemtl None.005
s off
f 1/1/1 2/2/1 3/3/1
f 4/3/2 1/4/2 3/2/2
f 3/2/3 2/3/3 4/5/3
f 2/3/4 1/6/4 4/2/4
