# Blender v2.72 (sub 0) OBJ File: ''
# www.blender.org
mtllib moreblocks_slope_outer_half.mtl
o Cube.004
v -0.500000 -0.500000 0.500000
v -0.500000 -0.500000 -0.500000
v 0.500000 -0.500000 -0.500000
v 0.500000 -0.500000 0.500000
v 0.500000 -0.000000 0.500000
vt 1.000000 1.000000
vt 0.000000 1.000000
vt 0.000000 0.000000
vt 1.000000 0.000000
vt 1.000000 0.500000
vt 0.000000 0.500000
vn 0.000000 -1.000000 -0.000000
vn 0.000000 -0.000000 1.000000
vn 1.000000 0.000000 0.000000
vn 0.000000 0.894400 -0.447200
vn -0.447200 0.894400 0.000000
usemtl None.007
s off
f 1/1/1 2/2/1 3/3/1 4/4/1
f 5/5/2 1/3/2 4/4/2
f 3/4/3 5/6/3 4/3/3
f 2/4/4 5/2/4 3/3/4
f 1/4/5 5/1/5 2/3/5
